<svg version="1.2" xmlns="http://www.w3.org/2000/svg" viewBox="0 0 140 115" width="140" height="115"><style>.a{fill:#f44687}.b{fill:#f4cf2f}.c{opacity:.54;fill:#f2f2f2}.d{fill:#f2f2f2}.e{fill:#1f88cb;stroke:#f2f2f2;stroke-linecap:round;stroke-linejoin:round;stroke-width:4}.f{fill:none;stroke:#f2f2f2;stroke-linecap:round;stroke-linejoin:round;stroke-width:4}</style><filter id="f0"><feFlood flood-color="#61caff" flood-opacity="1" /><feBlend mode="color" in2="SourceGraphic"/><feComposite in2="SourceAlpha" operator="in" /></filter><g filter="url(#f0)"><path fill-rule="evenodd" class="a" d="m22.7 12.3h87.9c7.2 0 13 5.8 13 13v60.6c0 7.1-5.8 13-13 13h-87.9c-7.1 0-13-5.9-13-13v-60.6c0-7.2 5.9-13 13-13z"/><path fill-rule="evenodd" class="b" d="m13.3 12.3h87.9c7.2 0 13 5.8 13 13v60.6c0 7.1-5.8 13-13 13h-87.9c-7.1 0-13-5.9-13-13v-60.6c0-7.2 5.9-13 13-13z"/><path fill-rule="evenodd" class="c" d="m43.1 36.8h51.8c1.3 0 2.3 1 2.3 2.3 0 1.3-1 2.4-2.3 2.4h-51.8c-1.3 0-2.3-1.1-2.3-2.4 0-1.3 1-2.3 2.3-2.3z"/><path fill-rule="evenodd" class="a" d="m16.8 47.1h78.1c1.3 0 2.3 1.1 2.3 2.4 0 1.3-1 2.3-2.3 2.3h-78.1c-1.3 0-2.4-1-2.4-2.3 0-1.3 1.1-2.4 2.4-2.4z"/><path fill-rule="evenodd" class="c" d="m16.3 58h78.4c1.3 0 2.3 1 2.3 2.3 0 1.3-1 2.4-2.3 2.4h-78.4c-1.3 0-2.3-1.1-2.3-2.4 0-1.3 1-2.3 2.3-2.3z"/><path fill-rule="evenodd" class="c" d="m16.3 68.3h78.4c1.3 0 2.3 1.1 2.3 2.4 0 1.3-1 2.3-2.3 2.3h-78.4c-1.3 0-2.3-1-2.3-2.3 0-1.3 1-2.4 2.3-2.4z"/><path fill-rule="evenodd" class="c" d="m16.8 80h21.6c1.3 0 2.4 1.1 2.4 2.4 0 1.3-1.1 2.3-2.4 2.3h-21.6c-1.3 0-2.4-1-2.4-2.3 0-1.3 1.1-2.4 2.4-2.4z"/><path fill-rule="evenodd" class="d" d="m12.6 12.3h14.1v2.4c0 3.9-3.2 7-7 7h-0.1c-3.9 0-7-3.1-7-7z"/><path fill-rule="evenodd" class="d" d="m37 12.3h14.1v2.4c0 3.9-3.1 7-7 7h-0.1c-3.8 0-7-3.1-7-7z"/><path fill-rule="evenodd" class="d" d="m61.5 12.3h14.1v2.4c0 3.9-3.1 7-7 7h-0.1c-3.9 0-7-3.1-7-7z"/><path fill-rule="evenodd" class="d" d="m86 12.3h14.1v2.4c0 3.9-3.2 7-7 7h-0.1c-3.9 0-7-3.1-7-7z"/><path fill-rule="evenodd" class="a" d="m20.9 0.1h0.8c2.2 0 4 1.8 4 4v10.8c0 2.2-1.8 4-4 4h-0.8c-2.3 0-4-1.8-4-4v-10.8c0-2.2 1.7-4 4-4z"/><path fill-rule="evenodd" class="b" d="m18.4 0.1h0.9c2.2 0 4 1.8 4 4v10.8c0 2.2-1.8 4-4 4h-0.9c-2.2 0-4-1.8-4-4v-10.8c0-2.2 1.8-4 4-4z"/><path fill-rule="evenodd" class="a" d="m44.4 0.1h0.9c2.2 0 4 1.8 4 4v10.8c0 2.2-1.8 4-4 4h-0.9c-2.2 0-4-1.8-4-4v-10.8c0-2.2 1.8-4 4-4z"/><path fill-rule="evenodd" class="b" d="m42 0.1h0.8c2.3 0 4 1.8 4 4v10.8c0 2.2-1.7 4-4 4h-0.8c-2.2 0-4-1.8-4-4v-10.8c0-2.2 1.8-4 4-4z"/><path fill-rule="evenodd" class="a" d="m69.8 0.1h0.9c2.2 0 4 1.8 4 4v10.8c0 2.2-1.8 4-4 4h-0.9c-2.2 0-4-1.8-4-4v-10.8c0-2.2 1.8-4 4-4z"/><path fill-rule="evenodd" class="b" d="m67.4 0.1h0.9c2.2 0 4 1.8 4 4v10.8c0 2.2-1.8 4-4 4h-0.9c-2.2 0-4-1.8-4-4v-10.8c0-2.2 1.8-4 4-4z"/><path fill-rule="evenodd" class="a" d="m94.2 0.1h0.9c2.2 0 4 1.8 4 4v10.8c0 2.2-1.8 4-4 4h-0.9c-2.2 0-4-1.8-4-4v-10.8c0-2.2 1.8-4 4-4z"/><path fill-rule="evenodd" class="b" d="m91.8 0.1h0.9c2.2 0 4 1.8 4 4v10.8c0 2.2-1.8 4-4 4h-0.9c-2.2 0-4-1.8-4-4v-10.8c0-2.2 1.8-4 4-4z"/></g><path fill-rule="evenodd" class="e" d="m114 65.1c13.2 0 23.9 10.7 23.9 23.9 0 13.2-10.7 23.9-23.9 23.9-13.2 0-23.9-10.7-23.9-23.9 0-13.2 10.7-23.9 23.9-23.9z"/><path fill-rule="evenodd" class="f" d="m102.9 88l9.9 8.4 11.4-13.8"/></svg>